<mxfile host="app.diagrams.net" agent="Mozilla/5.0 (Windows NT 10.0; Win64; x64) AppleWebKit/537.36 (KHTML, like Gecko) Chrome/132.0.0.0 Safari/537.36" version="25.0.3">
  <diagram name="Page-1" id="GwVaYIs0e5d5LyxE89GE">
    <mxGraphModel dx="1730" dy="1568" grid="1" gridSize="10" guides="1" tooltips="1" connect="1" arrows="1" fold="1" page="1" pageScale="1" pageWidth="850" pageHeight="1100" math="0" shadow="0">
      <root>
        <mxCell id="0" />
        <mxCell id="1" parent="0" />
        <mxCell id="BMT0Aoc9nxbUwGId0PpE-1" value="AWS Account" style="points=[[0,0],[0.25,0],[0.5,0],[0.75,0],[1,0],[1,0.25],[1,0.5],[1,0.75],[1,1],[0.75,1],[0.5,1],[0.25,1],[0,1],[0,0.75],[0,0.5],[0,0.25]];outlineConnect=0;gradientColor=none;html=1;whiteSpace=wrap;fontSize=12;fontStyle=0;container=1;pointerEvents=0;collapsible=0;recursiveResize=0;shape=mxgraph.aws4.group;grIcon=mxgraph.aws4.group_account;strokeColor=#CD2264;fillColor=none;verticalAlign=top;align=left;spacingLeft=30;fontColor=#CD2264;dashed=0;" vertex="1" parent="1">
          <mxGeometry x="-80" y="-30" width="1280" height="750" as="geometry" />
        </mxCell>
        <mxCell id="BMT0Aoc9nxbUwGId0PpE-6" value="us-east-1b" style="sketch=0;outlineConnect=0;gradientColor=none;html=1;whiteSpace=wrap;fontSize=12;fontStyle=0;shape=mxgraph.aws4.group;grIcon=mxgraph.aws4.group_availability_zone;strokeColor=#545B64;fillColor=none;verticalAlign=top;align=left;spacingLeft=30;fontColor=#545B64;dashed=1;" vertex="1" parent="BMT0Aoc9nxbUwGId0PpE-1">
          <mxGeometry x="50" y="410" width="600" height="180" as="geometry" />
        </mxCell>
        <mxCell id="BMT0Aoc9nxbUwGId0PpE-2" value="&lt;b&gt;&lt;font color=&quot;#0000fa&quot;&gt;Expense Dev - VPC&lt;/font&gt;&lt;/b&gt;" style="points=[[0,0],[0.25,0],[0.5,0],[0.75,0],[1,0],[1,0.25],[1,0.5],[1,0.75],[1,1],[0.75,1],[0.5,1],[0.25,1],[0,1],[0,0.75],[0,0.5],[0,0.25]];outlineConnect=0;gradientColor=none;html=1;whiteSpace=wrap;fontSize=12;fontStyle=0;container=1;pointerEvents=0;collapsible=0;recursiveResize=0;shape=mxgraph.aws4.group;grIcon=mxgraph.aws4.group_vpc2;strokeColor=#8C4FFF;fillColor=none;verticalAlign=top;align=left;spacingLeft=30;fontColor=#AAB7B8;dashed=0;" vertex="1" parent="BMT0Aoc9nxbUwGId0PpE-1">
          <mxGeometry x="50" y="80" width="630" height="550" as="geometry" />
        </mxCell>
        <mxCell id="BMT0Aoc9nxbUwGId0PpE-8" value="Private subnet" style="sketch=0;outlineConnect=0;html=1;whiteSpace=wrap;fontSize=12;fontStyle=0;shape=mxgraph.aws4.group;grIcon=mxgraph.aws4.group_subnet;strokeColor=#9673a6;fillColor=#e1d5e7;verticalAlign=top;align=left;spacingLeft=30;dashed=0;" vertex="1" parent="BMT0Aoc9nxbUwGId0PpE-2">
          <mxGeometry x="245" y="65" width="140" height="390" as="geometry" />
        </mxCell>
        <mxCell id="BMT0Aoc9nxbUwGId0PpE-9" value="database subnet" style="sketch=0;outlineConnect=0;html=1;whiteSpace=wrap;fontSize=12;fontStyle=0;shape=mxgraph.aws4.group;grIcon=mxgraph.aws4.group_subnet;strokeColor=#82b366;fillColor=#d5e8d4;verticalAlign=top;align=left;spacingLeft=30;dashed=0;" vertex="1" parent="BMT0Aoc9nxbUwGId0PpE-1">
          <mxGeometry x="490" y="145" width="140" height="390" as="geometry" />
        </mxCell>
        <mxCell id="BMT0Aoc9nxbUwGId0PpE-7" value="Public subnet" style="sketch=0;outlineConnect=0;html=1;whiteSpace=wrap;fontSize=12;fontStyle=0;shape=mxgraph.aws4.group;grIcon=mxgraph.aws4.group_subnet;strokeColor=#d79b00;fillColor=#ffe6cc;verticalAlign=top;align=left;spacingLeft=30;dashed=0;" vertex="1" parent="BMT0Aoc9nxbUwGId0PpE-1">
          <mxGeometry x="100" y="145" width="140" height="390" as="geometry" />
        </mxCell>
        <mxCell id="BMT0Aoc9nxbUwGId0PpE-5" value="us-east-1a" style="sketch=0;outlineConnect=0;gradientColor=none;html=1;whiteSpace=wrap;fontSize=12;fontStyle=0;shape=mxgraph.aws4.group;grIcon=mxgraph.aws4.group_availability_zone;strokeColor=#545B64;fillColor=none;verticalAlign=top;align=left;spacingLeft=30;fontColor=#545B64;dashed=1;" vertex="1" parent="BMT0Aoc9nxbUwGId0PpE-1">
          <mxGeometry x="50" y="80" width="600" height="180" as="geometry" />
        </mxCell>
        <mxCell id="BMT0Aoc9nxbUwGId0PpE-10" value="" style="outlineConnect=0;dashed=0;verticalLabelPosition=bottom;verticalAlign=top;align=center;html=1;shape=mxgraph.aws3.route_table;fillColor=#F58536;gradientColor=none;" vertex="1" parent="BMT0Aoc9nxbUwGId0PpE-1">
          <mxGeometry x="112.5" y="80" width="75" height="69" as="geometry" />
        </mxCell>
        <mxCell id="BMT0Aoc9nxbUwGId0PpE-11" value="" style="sketch=0;outlineConnect=0;fontColor=#232F3E;gradientColor=none;fillColor=#8C4FFF;strokeColor=none;dashed=0;verticalLabelPosition=bottom;verticalAlign=top;align=center;html=1;fontSize=12;fontStyle=0;aspect=fixed;pointerEvents=1;shape=mxgraph.aws4.route_table;" vertex="1" parent="BMT0Aoc9nxbUwGId0PpE-1">
          <mxGeometry x="311" y="80" width="71.85" height="70" as="geometry" />
        </mxCell>
        <mxCell id="BMT0Aoc9nxbUwGId0PpE-12" value="Route table" style="sketch=0;outlineConnect=0;fontColor=#232F3E;gradientColor=none;strokeColor=#232F3E;fillColor=#ffffff;dashed=0;verticalLabelPosition=bottom;verticalAlign=top;align=center;html=1;fontSize=12;fontStyle=0;aspect=fixed;shape=mxgraph.aws4.resourceIcon;resIcon=mxgraph.aws4.route_table;" vertex="1" parent="BMT0Aoc9nxbUwGId0PpE-1">
          <mxGeometry x="522" y="74" width="76" height="76" as="geometry" />
        </mxCell>
        <mxCell id="BMT0Aoc9nxbUwGId0PpE-84" value="VPC" style="sketch=0;outlineConnect=0;gradientColor=none;html=1;whiteSpace=wrap;fontSize=12;fontStyle=0;shape=mxgraph.aws4.group;grIcon=mxgraph.aws4.group_vpc;strokeColor=#879196;fillColor=none;verticalAlign=top;align=left;spacingLeft=30;fontColor=#879196;dashed=0;" vertex="1" parent="BMT0Aoc9nxbUwGId0PpE-1">
          <mxGeometry x="780" y="80" width="330" height="550" as="geometry" />
        </mxCell>
        <mxCell id="BMT0Aoc9nxbUwGId0PpE-85" value="VPC-Peering" style="outlineConnect=0;dashed=0;verticalLabelPosition=bottom;verticalAlign=top;align=center;html=1;shape=mxgraph.aws3.vpc_peering;fillColor=#F58536;gradientColor=none;" vertex="1" parent="BMT0Aoc9nxbUwGId0PpE-1">
          <mxGeometry x="680" y="304" width="100" height="76" as="geometry" />
        </mxCell>
        <mxCell id="BMT0Aoc9nxbUwGId0PpE-86" value="" style="sketch=0;outlineConnect=0;fontColor=#232F3E;gradientColor=none;fillColor=#8C4FFF;strokeColor=none;dashed=0;verticalLabelPosition=bottom;verticalAlign=top;align=center;html=1;fontSize=12;fontStyle=0;aspect=fixed;pointerEvents=1;shape=mxgraph.aws4.internet_gateway;" vertex="1" parent="BMT0Aoc9nxbUwGId0PpE-1">
          <mxGeometry x="12" y="301" width="78" height="78" as="geometry" />
        </mxCell>
        <mxCell id="BMT0Aoc9nxbUwGId0PpE-87" value="Nat gateway" style="outlineConnect=0;dashed=0;verticalLabelPosition=bottom;verticalAlign=top;align=center;html=1;shape=mxgraph.aws3.vpc_nat_gateway;fillColor=#F58536;gradientColor=none;" vertex="1" parent="BMT0Aoc9nxbUwGId0PpE-1">
          <mxGeometry x="121" y="260" width="69" height="72" as="geometry" />
        </mxCell>
        <mxCell id="BMT0Aoc9nxbUwGId0PpE-89" value="" style="outlineConnect=0;dashed=0;verticalLabelPosition=bottom;verticalAlign=top;align=center;html=1;shape=mxgraph.aws3.route_table;fillColor=#F58536;gradientColor=none;" vertex="1" parent="BMT0Aoc9nxbUwGId0PpE-1">
          <mxGeometry x="907.5" y="90" width="75" height="69" as="geometry" />
        </mxCell>
        <mxCell id="BMT0Aoc9nxbUwGId0PpE-54" value="" style="shape=table;startSize=0;container=1;collapsible=0;childLayout=tableLayout;fontSize=16;" vertex="1" parent="1">
          <mxGeometry x="110" y="-180" width="280" height="120" as="geometry" />
        </mxCell>
        <mxCell id="BMT0Aoc9nxbUwGId0PpE-55" value="" style="shape=tableRow;horizontal=0;startSize=0;swimlaneHead=0;swimlaneBody=0;strokeColor=inherit;top=0;left=0;bottom=0;right=0;collapsible=0;dropTarget=0;fillColor=none;points=[[0,0.5],[1,0.5]];portConstraint=eastwest;fontSize=16;" vertex="1" parent="BMT0Aoc9nxbUwGId0PpE-54">
          <mxGeometry width="280" height="40" as="geometry" />
        </mxCell>
        <mxCell id="BMT0Aoc9nxbUwGId0PpE-56" value="CIDR" style="shape=partialRectangle;html=1;whiteSpace=wrap;connectable=0;strokeColor=inherit;overflow=hidden;fillColor=none;top=0;left=0;bottom=0;right=0;pointerEvents=1;fontSize=16;" vertex="1" parent="BMT0Aoc9nxbUwGId0PpE-55">
          <mxGeometry width="94" height="40" as="geometry">
            <mxRectangle width="94" height="40" as="alternateBounds" />
          </mxGeometry>
        </mxCell>
        <mxCell id="BMT0Aoc9nxbUwGId0PpE-57" value="Target" style="shape=partialRectangle;html=1;whiteSpace=wrap;connectable=0;strokeColor=inherit;overflow=hidden;fillColor=none;top=0;left=0;bottom=0;right=0;pointerEvents=1;fontSize=16;" vertex="1" parent="BMT0Aoc9nxbUwGId0PpE-55">
          <mxGeometry x="94" width="92" height="40" as="geometry">
            <mxRectangle width="92" height="40" as="alternateBounds" />
          </mxGeometry>
        </mxCell>
        <mxCell id="BMT0Aoc9nxbUwGId0PpE-58" value="" style="shape=partialRectangle;html=1;whiteSpace=wrap;connectable=0;strokeColor=inherit;overflow=hidden;fillColor=none;top=0;left=0;bottom=0;right=0;pointerEvents=1;fontSize=16;" vertex="1" parent="BMT0Aoc9nxbUwGId0PpE-55">
          <mxGeometry x="186" width="94" height="40" as="geometry">
            <mxRectangle width="94" height="40" as="alternateBounds" />
          </mxGeometry>
        </mxCell>
        <mxCell id="BMT0Aoc9nxbUwGId0PpE-59" value="" style="shape=tableRow;horizontal=0;startSize=0;swimlaneHead=0;swimlaneBody=0;strokeColor=inherit;top=0;left=0;bottom=0;right=0;collapsible=0;dropTarget=0;fillColor=none;points=[[0,0.5],[1,0.5]];portConstraint=eastwest;fontSize=16;" vertex="1" parent="BMT0Aoc9nxbUwGId0PpE-54">
          <mxGeometry y="40" width="280" height="40" as="geometry" />
        </mxCell>
        <mxCell id="BMT0Aoc9nxbUwGId0PpE-60" value="10.0.0.0/16" style="shape=partialRectangle;html=1;whiteSpace=wrap;connectable=0;strokeColor=inherit;overflow=hidden;fillColor=none;top=0;left=0;bottom=0;right=0;pointerEvents=1;fontSize=16;" vertex="1" parent="BMT0Aoc9nxbUwGId0PpE-59">
          <mxGeometry width="94" height="40" as="geometry">
            <mxRectangle width="94" height="40" as="alternateBounds" />
          </mxGeometry>
        </mxCell>
        <mxCell id="BMT0Aoc9nxbUwGId0PpE-61" value="local" style="shape=partialRectangle;html=1;whiteSpace=wrap;connectable=0;strokeColor=inherit;overflow=hidden;fillColor=none;top=0;left=0;bottom=0;right=0;pointerEvents=1;fontSize=16;" vertex="1" parent="BMT0Aoc9nxbUwGId0PpE-59">
          <mxGeometry x="94" width="92" height="40" as="geometry">
            <mxRectangle width="92" height="40" as="alternateBounds" />
          </mxGeometry>
        </mxCell>
        <mxCell id="BMT0Aoc9nxbUwGId0PpE-62" value="" style="shape=partialRectangle;html=1;whiteSpace=wrap;connectable=0;strokeColor=inherit;overflow=hidden;fillColor=none;top=0;left=0;bottom=0;right=0;pointerEvents=1;fontSize=16;" vertex="1" parent="BMT0Aoc9nxbUwGId0PpE-59">
          <mxGeometry x="186" width="94" height="40" as="geometry">
            <mxRectangle width="94" height="40" as="alternateBounds" />
          </mxGeometry>
        </mxCell>
        <mxCell id="BMT0Aoc9nxbUwGId0PpE-63" value="" style="shape=tableRow;horizontal=0;startSize=0;swimlaneHead=0;swimlaneBody=0;strokeColor=inherit;top=0;left=0;bottom=0;right=0;collapsible=0;dropTarget=0;fillColor=none;points=[[0,0.5],[1,0.5]];portConstraint=eastwest;fontSize=16;" vertex="1" parent="BMT0Aoc9nxbUwGId0PpE-54">
          <mxGeometry y="80" width="280" height="40" as="geometry" />
        </mxCell>
        <mxCell id="BMT0Aoc9nxbUwGId0PpE-64" value="0.0.0.0/0&lt;div&gt;172.31.0.0/16&lt;/div&gt;" style="shape=partialRectangle;html=1;whiteSpace=wrap;connectable=0;strokeColor=inherit;overflow=hidden;fillColor=none;top=0;left=0;bottom=0;right=0;pointerEvents=1;fontSize=16;" vertex="1" parent="BMT0Aoc9nxbUwGId0PpE-63">
          <mxGeometry width="94" height="40" as="geometry">
            <mxRectangle width="94" height="40" as="alternateBounds" />
          </mxGeometry>
        </mxCell>
        <mxCell id="BMT0Aoc9nxbUwGId0PpE-65" value="IGW&lt;div&gt;pcx-td&lt;/div&gt;" style="shape=partialRectangle;html=1;whiteSpace=wrap;connectable=0;strokeColor=inherit;overflow=hidden;fillColor=none;top=0;left=0;bottom=0;right=0;pointerEvents=1;fontSize=16;" vertex="1" parent="BMT0Aoc9nxbUwGId0PpE-63">
          <mxGeometry x="94" width="92" height="40" as="geometry">
            <mxRectangle width="92" height="40" as="alternateBounds" />
          </mxGeometry>
        </mxCell>
        <mxCell id="BMT0Aoc9nxbUwGId0PpE-66" value="" style="shape=partialRectangle;html=1;whiteSpace=wrap;connectable=0;strokeColor=inherit;overflow=hidden;fillColor=none;top=0;left=0;bottom=0;right=0;pointerEvents=1;fontSize=16;" vertex="1" parent="BMT0Aoc9nxbUwGId0PpE-63">
          <mxGeometry x="186" width="94" height="40" as="geometry">
            <mxRectangle width="94" height="40" as="alternateBounds" />
          </mxGeometry>
        </mxCell>
        <mxCell id="BMT0Aoc9nxbUwGId0PpE-67" value="" style="shape=table;startSize=0;container=1;collapsible=0;childLayout=tableLayout;fontSize=16;" vertex="1" parent="1">
          <mxGeometry x="470" y="-180" width="220" height="120" as="geometry" />
        </mxCell>
        <mxCell id="BMT0Aoc9nxbUwGId0PpE-68" value="" style="shape=tableRow;horizontal=0;startSize=0;swimlaneHead=0;swimlaneBody=0;strokeColor=inherit;top=0;left=0;bottom=0;right=0;collapsible=0;dropTarget=0;fillColor=none;points=[[0,0.5],[1,0.5]];portConstraint=eastwest;fontSize=16;" vertex="1" parent="BMT0Aoc9nxbUwGId0PpE-67">
          <mxGeometry width="220" height="41" as="geometry" />
        </mxCell>
        <mxCell id="BMT0Aoc9nxbUwGId0PpE-69" value="CIDR" style="shape=partialRectangle;html=1;whiteSpace=wrap;connectable=0;strokeColor=inherit;overflow=hidden;fillColor=none;top=0;left=0;bottom=0;right=0;pointerEvents=1;fontSize=16;" vertex="1" parent="BMT0Aoc9nxbUwGId0PpE-68">
          <mxGeometry width="73" height="41" as="geometry">
            <mxRectangle width="73" height="41" as="alternateBounds" />
          </mxGeometry>
        </mxCell>
        <mxCell id="BMT0Aoc9nxbUwGId0PpE-70" value="Target" style="shape=partialRectangle;html=1;whiteSpace=wrap;connectable=0;strokeColor=inherit;overflow=hidden;fillColor=none;top=0;left=0;bottom=0;right=0;pointerEvents=1;fontSize=16;" vertex="1" parent="BMT0Aoc9nxbUwGId0PpE-68">
          <mxGeometry x="73" width="74" height="41" as="geometry">
            <mxRectangle width="74" height="41" as="alternateBounds" />
          </mxGeometry>
        </mxCell>
        <mxCell id="BMT0Aoc9nxbUwGId0PpE-71" value="" style="shape=partialRectangle;html=1;whiteSpace=wrap;connectable=0;strokeColor=inherit;overflow=hidden;fillColor=none;top=0;left=0;bottom=0;right=0;pointerEvents=1;fontSize=16;" vertex="1" parent="BMT0Aoc9nxbUwGId0PpE-68">
          <mxGeometry x="147" width="73" height="41" as="geometry">
            <mxRectangle width="73" height="41" as="alternateBounds" />
          </mxGeometry>
        </mxCell>
        <mxCell id="BMT0Aoc9nxbUwGId0PpE-72" value="" style="shape=tableRow;horizontal=0;startSize=0;swimlaneHead=0;swimlaneBody=0;strokeColor=inherit;top=0;left=0;bottom=0;right=0;collapsible=0;dropTarget=0;fillColor=none;points=[[0,0.5],[1,0.5]];portConstraint=eastwest;fontSize=16;" vertex="1" parent="BMT0Aoc9nxbUwGId0PpE-67">
          <mxGeometry y="41" width="220" height="38" as="geometry" />
        </mxCell>
        <mxCell id="BMT0Aoc9nxbUwGId0PpE-73" value="10.0.0.0/16" style="shape=partialRectangle;html=1;whiteSpace=wrap;connectable=0;strokeColor=inherit;overflow=hidden;fillColor=none;top=0;left=0;bottom=0;right=0;pointerEvents=1;fontSize=16;" vertex="1" parent="BMT0Aoc9nxbUwGId0PpE-72">
          <mxGeometry width="73" height="38" as="geometry">
            <mxRectangle width="73" height="38" as="alternateBounds" />
          </mxGeometry>
        </mxCell>
        <mxCell id="BMT0Aoc9nxbUwGId0PpE-74" value="Local" style="shape=partialRectangle;html=1;whiteSpace=wrap;connectable=0;strokeColor=inherit;overflow=hidden;fillColor=none;top=0;left=0;bottom=0;right=0;pointerEvents=1;fontSize=16;" vertex="1" parent="BMT0Aoc9nxbUwGId0PpE-72">
          <mxGeometry x="73" width="74" height="38" as="geometry">
            <mxRectangle width="74" height="38" as="alternateBounds" />
          </mxGeometry>
        </mxCell>
        <mxCell id="BMT0Aoc9nxbUwGId0PpE-75" value="" style="shape=partialRectangle;html=1;whiteSpace=wrap;connectable=0;strokeColor=inherit;overflow=hidden;fillColor=none;top=0;left=0;bottom=0;right=0;pointerEvents=1;fontSize=16;" vertex="1" parent="BMT0Aoc9nxbUwGId0PpE-72">
          <mxGeometry x="147" width="73" height="38" as="geometry">
            <mxRectangle width="73" height="38" as="alternateBounds" />
          </mxGeometry>
        </mxCell>
        <mxCell id="BMT0Aoc9nxbUwGId0PpE-76" value="" style="shape=tableRow;horizontal=0;startSize=0;swimlaneHead=0;swimlaneBody=0;strokeColor=inherit;top=0;left=0;bottom=0;right=0;collapsible=0;dropTarget=0;fillColor=none;points=[[0,0.5],[1,0.5]];portConstraint=eastwest;fontSize=16;" vertex="1" parent="BMT0Aoc9nxbUwGId0PpE-67">
          <mxGeometry y="79" width="220" height="41" as="geometry" />
        </mxCell>
        <mxCell id="BMT0Aoc9nxbUwGId0PpE-77" value="0.0.0.0/0" style="shape=partialRectangle;html=1;whiteSpace=wrap;connectable=0;strokeColor=inherit;overflow=hidden;fillColor=none;top=0;left=0;bottom=0;right=0;pointerEvents=1;fontSize=16;" vertex="1" parent="BMT0Aoc9nxbUwGId0PpE-76">
          <mxGeometry width="73" height="41" as="geometry">
            <mxRectangle width="73" height="41" as="alternateBounds" />
          </mxGeometry>
        </mxCell>
        <mxCell id="BMT0Aoc9nxbUwGId0PpE-78" value="NAT" style="shape=partialRectangle;html=1;whiteSpace=wrap;connectable=0;strokeColor=inherit;overflow=hidden;fillColor=none;top=0;left=0;bottom=0;right=0;pointerEvents=1;fontSize=16;" vertex="1" parent="BMT0Aoc9nxbUwGId0PpE-76">
          <mxGeometry x="73" width="74" height="41" as="geometry">
            <mxRectangle width="74" height="41" as="alternateBounds" />
          </mxGeometry>
        </mxCell>
        <mxCell id="BMT0Aoc9nxbUwGId0PpE-79" value="" style="shape=partialRectangle;html=1;whiteSpace=wrap;connectable=0;strokeColor=inherit;overflow=hidden;fillColor=none;top=0;left=0;bottom=0;right=0;pointerEvents=1;fontSize=16;" vertex="1" parent="BMT0Aoc9nxbUwGId0PpE-76">
          <mxGeometry x="147" width="73" height="41" as="geometry">
            <mxRectangle width="73" height="41" as="alternateBounds" />
          </mxGeometry>
        </mxCell>
        <mxCell id="BMT0Aoc9nxbUwGId0PpE-80" style="edgeStyle=orthogonalEdgeStyle;rounded=0;orthogonalLoop=1;jettySize=auto;html=1;entryX=0.461;entryY=1.025;entryDx=0;entryDy=0;entryPerimeter=0;" edge="1" parent="1" source="BMT0Aoc9nxbUwGId0PpE-10" target="BMT0Aoc9nxbUwGId0PpE-63">
          <mxGeometry relative="1" as="geometry" />
        </mxCell>
        <mxCell id="BMT0Aoc9nxbUwGId0PpE-81" style="edgeStyle=orthogonalEdgeStyle;rounded=0;orthogonalLoop=1;jettySize=auto;html=1;entryX=0.488;entryY=1;entryDx=0;entryDy=0;entryPerimeter=0;" edge="1" parent="1" source="BMT0Aoc9nxbUwGId0PpE-11" target="BMT0Aoc9nxbUwGId0PpE-76">
          <mxGeometry relative="1" as="geometry" />
        </mxCell>
        <mxCell id="BMT0Aoc9nxbUwGId0PpE-83" style="edgeStyle=orthogonalEdgeStyle;rounded=0;orthogonalLoop=1;jettySize=auto;html=1;entryX=0.6;entryY=1.025;entryDx=0;entryDy=0;entryPerimeter=0;" edge="1" parent="1" source="BMT0Aoc9nxbUwGId0PpE-12" target="BMT0Aoc9nxbUwGId0PpE-76">
          <mxGeometry relative="1" as="geometry" />
        </mxCell>
        <mxCell id="BMT0Aoc9nxbUwGId0PpE-103" value="" style="shape=table;startSize=0;container=1;collapsible=0;childLayout=tableLayout;fontSize=16;" vertex="1" parent="1">
          <mxGeometry x="750" y="-180" width="260" height="120" as="geometry" />
        </mxCell>
        <mxCell id="BMT0Aoc9nxbUwGId0PpE-104" value="" style="shape=tableRow;horizontal=0;startSize=0;swimlaneHead=0;swimlaneBody=0;strokeColor=inherit;top=0;left=0;bottom=0;right=0;collapsible=0;dropTarget=0;fillColor=none;points=[[0,0.5],[1,0.5]];portConstraint=eastwest;fontSize=16;" vertex="1" parent="BMT0Aoc9nxbUwGId0PpE-103">
          <mxGeometry width="260" height="40" as="geometry" />
        </mxCell>
        <mxCell id="BMT0Aoc9nxbUwGId0PpE-105" value="CIDR" style="shape=partialRectangle;html=1;whiteSpace=wrap;connectable=0;strokeColor=inherit;overflow=hidden;fillColor=none;top=0;left=0;bottom=0;right=0;pointerEvents=1;fontSize=16;" vertex="1" parent="BMT0Aoc9nxbUwGId0PpE-104">
          <mxGeometry width="100" height="40" as="geometry">
            <mxRectangle width="100" height="40" as="alternateBounds" />
          </mxGeometry>
        </mxCell>
        <mxCell id="BMT0Aoc9nxbUwGId0PpE-106" value="Target" style="shape=partialRectangle;html=1;whiteSpace=wrap;connectable=0;strokeColor=inherit;overflow=hidden;fillColor=none;top=0;left=0;bottom=0;right=0;pointerEvents=1;fontSize=16;" vertex="1" parent="BMT0Aoc9nxbUwGId0PpE-104">
          <mxGeometry x="100" width="73" height="40" as="geometry">
            <mxRectangle width="73" height="40" as="alternateBounds" />
          </mxGeometry>
        </mxCell>
        <mxCell id="BMT0Aoc9nxbUwGId0PpE-107" value="" style="shape=partialRectangle;html=1;whiteSpace=wrap;connectable=0;strokeColor=inherit;overflow=hidden;fillColor=none;top=0;left=0;bottom=0;right=0;pointerEvents=1;fontSize=16;" vertex="1" parent="BMT0Aoc9nxbUwGId0PpE-104">
          <mxGeometry x="173" width="87" height="40" as="geometry">
            <mxRectangle width="87" height="40" as="alternateBounds" />
          </mxGeometry>
        </mxCell>
        <mxCell id="BMT0Aoc9nxbUwGId0PpE-108" value="" style="shape=tableRow;horizontal=0;startSize=0;swimlaneHead=0;swimlaneBody=0;strokeColor=inherit;top=0;left=0;bottom=0;right=0;collapsible=0;dropTarget=0;fillColor=none;points=[[0,0.5],[1,0.5]];portConstraint=eastwest;fontSize=16;" vertex="1" parent="BMT0Aoc9nxbUwGId0PpE-103">
          <mxGeometry y="40" width="260" height="40" as="geometry" />
        </mxCell>
        <mxCell id="BMT0Aoc9nxbUwGId0PpE-109" value="10.0.0.0/16" style="shape=partialRectangle;html=1;whiteSpace=wrap;connectable=0;strokeColor=inherit;overflow=hidden;fillColor=none;top=0;left=0;bottom=0;right=0;pointerEvents=1;fontSize=16;" vertex="1" parent="BMT0Aoc9nxbUwGId0PpE-108">
          <mxGeometry width="100" height="40" as="geometry">
            <mxRectangle width="100" height="40" as="alternateBounds" />
          </mxGeometry>
        </mxCell>
        <mxCell id="BMT0Aoc9nxbUwGId0PpE-110" value="pcx-ertsah4" style="shape=partialRectangle;html=1;whiteSpace=wrap;connectable=0;strokeColor=inherit;overflow=hidden;fillColor=none;top=0;left=0;bottom=0;right=0;pointerEvents=1;fontSize=16;" vertex="1" parent="BMT0Aoc9nxbUwGId0PpE-108">
          <mxGeometry x="100" width="73" height="40" as="geometry">
            <mxRectangle width="73" height="40" as="alternateBounds" />
          </mxGeometry>
        </mxCell>
        <mxCell id="BMT0Aoc9nxbUwGId0PpE-111" value="" style="shape=partialRectangle;html=1;whiteSpace=wrap;connectable=0;strokeColor=inherit;overflow=hidden;fillColor=none;top=0;left=0;bottom=0;right=0;pointerEvents=1;fontSize=16;" vertex="1" parent="BMT0Aoc9nxbUwGId0PpE-108">
          <mxGeometry x="173" width="87" height="40" as="geometry">
            <mxRectangle width="87" height="40" as="alternateBounds" />
          </mxGeometry>
        </mxCell>
        <mxCell id="BMT0Aoc9nxbUwGId0PpE-112" value="" style="shape=tableRow;horizontal=0;startSize=0;swimlaneHead=0;swimlaneBody=0;strokeColor=inherit;top=0;left=0;bottom=0;right=0;collapsible=0;dropTarget=0;fillColor=none;points=[[0,0.5],[1,0.5]];portConstraint=eastwest;fontSize=16;" vertex="1" parent="BMT0Aoc9nxbUwGId0PpE-103">
          <mxGeometry y="80" width="260" height="40" as="geometry" />
        </mxCell>
        <mxCell id="BMT0Aoc9nxbUwGId0PpE-113" value="172.31.0.0/16" style="shape=partialRectangle;html=1;whiteSpace=wrap;connectable=0;strokeColor=inherit;overflow=hidden;fillColor=none;top=0;left=0;bottom=0;right=0;pointerEvents=1;fontSize=16;" vertex="1" parent="BMT0Aoc9nxbUwGId0PpE-112">
          <mxGeometry width="100" height="40" as="geometry">
            <mxRectangle width="100" height="40" as="alternateBounds" />
          </mxGeometry>
        </mxCell>
        <mxCell id="BMT0Aoc9nxbUwGId0PpE-114" value="local" style="shape=partialRectangle;html=1;whiteSpace=wrap;connectable=0;strokeColor=inherit;overflow=hidden;fillColor=none;top=0;left=0;bottom=0;right=0;pointerEvents=1;fontSize=16;" vertex="1" parent="BMT0Aoc9nxbUwGId0PpE-112">
          <mxGeometry x="100" width="73" height="40" as="geometry">
            <mxRectangle width="73" height="40" as="alternateBounds" />
          </mxGeometry>
        </mxCell>
        <mxCell id="BMT0Aoc9nxbUwGId0PpE-115" value="" style="shape=partialRectangle;html=1;whiteSpace=wrap;connectable=0;strokeColor=inherit;overflow=hidden;fillColor=none;top=0;left=0;bottom=0;right=0;pointerEvents=1;fontSize=16;" vertex="1" parent="BMT0Aoc9nxbUwGId0PpE-112">
          <mxGeometry x="173" width="87" height="40" as="geometry">
            <mxRectangle width="87" height="40" as="alternateBounds" />
          </mxGeometry>
        </mxCell>
        <mxCell id="BMT0Aoc9nxbUwGId0PpE-120" style="edgeStyle=orthogonalEdgeStyle;rounded=0;orthogonalLoop=1;jettySize=auto;html=1;entryX=0.492;entryY=1.025;entryDx=0;entryDy=0;entryPerimeter=0;" edge="1" parent="1" source="BMT0Aoc9nxbUwGId0PpE-84" target="BMT0Aoc9nxbUwGId0PpE-112">
          <mxGeometry relative="1" as="geometry" />
        </mxCell>
      </root>
    </mxGraphModel>
  </diagram>
</mxfile>
